HIERARCHY
ROOT Hips
{
	OFFSET -13.091600 -28.302996 44.698402
	CHANNELS 6 Xposition Yposition Zposition Zrotation Xrotation Yrotation
	JOINT Chest
	{
		OFFSET -0.673000 0.623899 5.369202
		CHANNELS 6 Xposition Yposition Zposition Zrotation Xrotation Yrotation
		JOINT Chest2
		{
			OFFSET 0.000000 0.000000 4.415001
			CHANNELS 6 Xposition Yposition Zposition Zrotation Xrotation Yrotation
			JOINT Neck
			{
				OFFSET 0.000000 0.000002 10.273300
				CHANNELS 6 Xposition Yposition Zposition Zrotation Xrotation Yrotation
				JOINT Head
				{
					OFFSET 0.000000 0.000000 2.173897
					CHANNELS 6 Xposition Yposition Zposition Zrotation Xrotation Yrotation
					End Site
					{
						OFFSET 0.000000 0.000000 9.961800
					}
				}
			}
			JOINT LeftCollar
			{
				OFFSET 2.359900 -0.565201 5.928101
				CHANNELS 6 Xposition Yposition Zposition Zrotation Xrotation Yrotation
				JOINT LeftShoulder
				{
					OFFSET 5.443700 0.000000 0.000000
					CHANNELS 6 Xposition Yposition Zposition Zrotation Xrotation Yrotation
					JOINT LeftElbow
					{
						OFFSET 0.000000 0.000000 -10.615799
						CHANNELS 6 Xposition Yposition Zposition Zrotation Xrotation Yrotation
						JOINT LeftWrist
						{
							OFFSET 0.000000 -0.000002 -13.110302
							CHANNELS 6 Xposition Yposition Zposition Zrotation Xrotation Yrotation
							End Site
							{
								OFFSET 0.000000 0.000000 -2.173901
							}
						}
					}
				}
			}
			JOINT RightCollar
			{
				OFFSET -2.636600 -1.718800 6.889698
				CHANNELS 6 Xposition Yposition Zposition Zrotation Xrotation Yrotation
				JOINT RightShoulder
				{
					OFFSET -4.139101 0.000000 0.000000
					CHANNELS 6 Xposition Yposition Zposition Zrotation Xrotation Yrotation
					JOINT RightElbow
					{
						OFFSET 0.000000 0.000000 -10.471802
						CHANNELS 6 Xposition Yposition Zposition Zrotation Xrotation Yrotation
						JOINT RightWrist
						{
							OFFSET 0.000000 0.000000 -12.281898
							CHANNELS 6 Xposition Yposition Zposition Zrotation Xrotation Yrotation
							End Site
							{
								OFFSET 0.000000 -0.000002 -2.173901
							}
						}
					}
				}
			}
		}
	}
	JOINT LeftHip
	{
		OFFSET 2.273400 0.176701 -2.518002
		CHANNELS 6 Xposition Yposition Zposition Zrotation Xrotation Yrotation
		JOINT LeftKnee
		{
			OFFSET 0.000000 -0.000002 -20.456402
			CHANNELS 6 Xposition Yposition Zposition Zrotation Xrotation Yrotation
			JOINT LeftAnkle
			{
				OFFSET 0.000000 -0.000002 -16.635300
				CHANNELS 6 Xposition Yposition Zposition Zrotation Xrotation Yrotation
				End Site
				{
					OFFSET 0.000000 -8.812399 0.000001
				}
			}
		}
	}
	JOINT RightHip
	{
		OFFSET -1.914800 0.018101 -2.699299
		CHANNELS 6 Xposition Yposition Zposition Zrotation Xrotation Yrotation
		JOINT RightKnee
		{
			OFFSET 0.000000 -0.000002 -20.148901
			CHANNELS 6 Xposition Yposition Zposition Zrotation Xrotation Yrotation
			JOINT RightAnkle
			{
				OFFSET 0.000000 -0.000002 -16.838301
				CHANNELS 6 Xposition Yposition Zposition Zrotation Xrotation Yrotation
				End Site
				{
					OFFSET 0.000000 -8.328398 0.000001
				}
			}
		}
	}
}
MOTION
Frames: 7
Frame Time: 0.041667
-32.588905 20.703413 43.718304 1427.238842 0.031866 0.718064 -0.672997 0.623891 5.369215 11.843210 30.251441 13.553663 -0.000004 -0.000001 4.415009 -21.899395 -5.871854 -2.537617 0.000003 0.000000 10.273300 52.250992 13.022323 -15.148519 0.000000 0.000005 2.173903 2.310757 -2.589147 3.960758 2.359895 -0.565199 5.928098 -2.336049 2.493374 17.345610 5.443707 0.000001 0.000001 -6.384690 7.140152 -63.785108 -0.000003 -0.000000 -10.615787 600.171236 -157.386615 186.498807 -0.000005 -0.000001 -13.110299 -53.491415 -362.572095 269.721520 -2.636600 -1.718801 6.889699 188.424688 -190.359148 188.443676 -4.139089 0.000004 -0.000002 400.423310 -374.326468 457.131502 -0.000003 0.000000 -10.471803 42.411530 -110.505433 -350.147134 0.000002 -0.000004 -12.281890 383.732595 18.105078 82.718966 2.273397 0.176701 -2.517999 -94.089865 -138.989145 -167.304022 0.000002 -0.000005 -20.456400 175.298745 156.467831 -204.619135 0.000003 0.000001 -16.635296 -54.249986 68.017155 18.199053 -1.914799 0.018105 -2.699292 140.004275 202.858531 165.347719 0.000003 -0.000007 -20.148897 42.433568 56.870573 -13.308148 -0.000003 -0.000004 -16.838305 -18.776817 11.580542 0.327238
-32.758698 20.689314 43.846508 1427.080929 0.041405 0.924351 -0.672999 0.623898 5.369217 12.112932 30.038305 13.349937 0.000005 0.000001 4.415010 -22.025104 -5.792924 -2.557227 -0.000005 0.000003 10.273303 52.392441 13.005463 -15.347538 0.000000 -0.000010 2.173894 2.277008 -2.534869 3.976657 2.359889 -0.565203 5.928099 -2.414816 2.548405 17.276576 5.443697 -0.000003 -0.000001 -6.208515 6.828207 -63.870929 0.000002 0.000002 -10.615794 599.890378 -158.033229 186.257182 -0.000004 -0.000004 -13.110301 -53.795236 -362.595181 269.526149 -2.636614 -1.718803 6.889694 188.493673 -190.701504 188.445220 -4.139101 -0.000003 0.000002 399.428069 -374.661257 457.342637 0.000002 0.000007 -10.471797 41.596334 -111.124248 -351.098907 0.000009 -0.000006 -12.281895 383.585446 18.010656 82.638418 2.273396 0.176702 -2.517997 -95.144720 -139.033063 -168.275890 0.000003 -0.000001 -20.456402 175.080233 156.277351 -204.189339 0.000003 0.000002 -16.635296 -53.283481 67.792851 18.118602 -1.914800 0.018103 -2.699296 141.228983 202.158150 165.772981 0.000002 -0.000005 -20.148903 39.343344 55.630945 -11.369208 -0.000003 -0.000006 -16.838301 -17.731649 12.182841 0.251744
-32.922897 20.675108 43.963009 1426.936238 0.050012 1.109611 -0.672997 0.623892 5.369214 12.356403 29.832934 13.168913 0.000001 0.000002 4.415009 -22.116130 -5.710322 -2.568726 0.000007 0.000004 10.273300 52.500355 12.983792 -15.526968 -0.000003 0.000004 2.173903 2.237626 -2.491623 3.987259 2.359905 -0.565198 5.928103 -2.529607 2.588060 17.125818 5.443696 -0.000000 0.000002 -5.983372 6.444942 -63.876626 -0.000002 0.000000 -10.615794 599.544170 -158.652221 186.018973 0.000001 0.000000 -13.110299 -53.759760 -362.554501 269.347335 -2.636598 -1.718801 6.889707 188.491132 -190.866973 188.513276 -4.139102 0.000002 -0.000007 398.613692 -374.869359 457.543991 -0.000000 0.000006 -10.471801 41.269089 -111.707443 -351.546640 0.000008 -0.000001 -12.281891 383.392889 17.950857 82.576912 2.273396 0.176700 -2.517996 -95.353395 -139.107485 -168.674404 -0.000002 -0.000002 -20.456400 175.008585 156.311242 -203.955746 0.000005 0.000001 -16.635296 -53.263950 67.725629 18.304588 -1.914802 0.018103 -2.699286 142.586961 201.484351 166.270751 -0.000001 0.000003 -20.148907 36.436710 54.310642 -9.680670 0.000002 -0.000001 -16.838303 -16.736685 12.802390 0.033452
-33.083199 20.660112 44.069305 1426.809251 0.058793 1.299673 -0.672993 0.623888 5.369215 12.583141 29.625799 12.984652 -0.000002 0.000002 4.414997 -22.190537 -5.636804 -2.579048 -0.000003 -0.000001 10.273302 52.585261 12.955634 -15.703571 -0.000003 0.000001 2.173900 2.189975 -2.476925 3.989652 2.359892 -0.565205 5.928097 -2.598790 2.592467 16.994421 5.443692 -0.000005 -0.000002 -5.859159 6.245890 -63.901501 0.000000 0.000004 -10.615798 599.321014 -159.269534 185.778126 -0.000005 0.000001 -13.110300 -53.634310 -362.586275 269.244992 -2.636609 -1.718810 6.889703 188.418883 -190.931532 188.601249 -4.139099 -0.000007 -0.000003 397.851498 -374.965009 457.592785 0.000002 0.000003 -10.471804 41.186816 -112.245041 -351.781489 0.000008 -0.000003 -12.281895 383.275628 17.845396 82.559912 2.273401 0.176697 -2.518000 -97.042057 -139.130434 -170.004447 -0.000000 -0.000000 -20.456402 174.755854 155.958531 -203.430819 0.000002 0.000001 -16.635296 -51.583436 67.463855 17.800701 -1.914798 0.018099 -2.699300 143.546616 200.801838 166.629514 0.000001 -0.000002 -20.148903 33.819118 53.029421 -8.125759 -0.000004 -0.000003 -16.838299 -15.585196 13.413652 -0.126399
-33.241005 20.644209 44.166306 1426.771002 -0.578853 1.524275 -0.673002 0.623901 5.369203 12.838111 30.044660 12.590705 0.000003 -0.000003 4.415007 -22.249242 -5.556904 -2.585115 0.000004 0.000005 10.273302 52.617670 12.933487 -15.831914 -0.000001 0.000001 2.173902 2.190747 -2.489144 3.968824 2.359898 -0.565202 5.928100 -2.608167 2.531180 16.830409 5.443693 -0.000004 -0.000003 -5.791876 6.107748 -63.893100 0.000005 0.000000 -10.615789 599.122010 -159.886327 185.547676 -0.000007 -0.000002 -13.110305 -53.332634 -362.501608 269.266165 -2.636599 -1.718805 6.889704 188.246051 -190.813260 188.769094 -4.139089 -0.000007 -0.000003 397.185418 -374.833706 457.461291 0.000002 0.000009 -10.471801 40.913789 -112.740598 -352.053167 0.000002 -0.000006 -12.281897 383.064329 17.730213 82.558197 2.273396 0.176702 -2.518008 -96.937187 -139.215265 -170.614082 -0.000001 -0.000005 -20.456396 174.867241 156.266614 -203.449820 0.000001 0.000004 -16.635294 -52.791201 67.556377 18.360027 -1.914802 0.018107 -2.699297 145.095279 199.583155 167.493546 -0.000004 -0.000006 -20.148897 31.318388 51.612065 -7.001899 0.000002 -0.000003 -16.838301 -14.771242 13.984317 -0.350069
-33.396999 20.627108 44.253902 1426.657129 -0.714066 1.727216 -0.673001 0.623899 5.369210 13.081121 29.973377 12.353470 0.000001 -0.000007 4.415008 -22.285184 -5.477846 -2.585557 0.000005 -0.000003 10.273304 52.620245 12.906109 -15.968639 -0.000000 0.000002 2.173898 2.196778 -2.533661 3.943479 2.359899 -0.565207 5.928105 -2.597037 2.455870 16.658662 5.443693 0.000000 0.000000 -5.765611 6.022869 -63.870082 0.000002 0.000002 -10.615791 598.913607 -160.457017 185.315245 -0.000006 -0.000001 -13.110300 -52.956168 -362.401450 269.415036 -2.636601 -1.718807 6.889706 188.013033 -190.571485 188.947676 -4.139092 0.000000 -0.000006 396.602229 -374.572301 457.266029 0.000001 0.000005 -10.471806 40.553565 -113.232140 -352.376289 -0.000005 -0.000003 -12.281893 382.757763 17.623445 82.565478 2.273393 0.176702 -2.518000 -97.388881 -139.220552 -171.215712 0.000000 -0.000005 -20.456398 175.033802 156.375433 -203.345045 0.000004 0.000004 -16.635298 -53.166790 67.553877 18.654341 -1.914801 0.018102 -2.699290 146.268119 198.779105 167.923534 -0.000000 -0.000007 -20.148903 29.250077 50.262225 -6.070288 -0.000002 -0.000003 -16.838301 -13.955002 14.506420 -0.480392
-33.550400 20.609606 44.333603 1426.553966 -0.883303 1.908374 -0.672998 0.623893 5.369206 13.305575 29.927297 12.137755 -0.000001 0.000004 4.415003 -22.307884 -5.390967 -2.581454 0.000006 0.000001 10.273302 52.617124 12.872395 -16.122609 0.000000 -0.000005 2.173903 2.315153 -2.589508 3.953883 2.359901 -0.565202 5.928104 -2.526098 2.302380 16.379955 5.443698 -0.000004 0.000003 -5.794232 6.043508 -63.720686 0.000003 0.000002 -10.615793 598.650563 -160.984458 185.071093 -0.000004 0.000000 -13.110297 -52.508988 -362.358228 269.646088 -2.636604 -1.718807 6.889704 187.749961 -190.196535 189.210980 -4.139096 -0.000002 -0.000006 396.065431 -374.274286 456.929929 -0.000005 0.000009 -10.471809 40.335057 -113.735122 -352.593544 0.000001 -0.000003 -12.281895 382.480321 17.562272 82.595251 2.273402 0.176699 -2.518004 -97.748504 -139.227423 -171.756868 0.000000 -0.000004 -20.456400 175.129370 156.461233 -203.268260 0.000005 0.000003 -16.635294 -53.623938 67.572612 18.997881 -1.914793 0.018102 -2.699298 147.349119 197.950616 168.347566 0.000001 -0.000003 -20.148901 27.602118 48.925683 -5.443073 -0.000002 -0.000006 -16.838301 -13.289239 14.959281 -0.582834
